<?xml version="1.0" standalone="no"?>
<!DOCTYPE svg PUBLIC "-//W3C//DTD SVG 1.1//EN" "http://www.w3.org/Graphics/SVG/1.1/DTD/svg11.dtd" >
<svg xmlns="http://www.w3.org/2000/svg">
<metadata>Generated by IcoMoon</metadata>
<defs>
<font id="icomoon" horiz-adv-x="1024">
<font-face units-per-em="1024" ascent="960" descent="-64" />
<missing-glyph horiz-adv-x="1024" />
<glyph unicode="&#x20;" horiz-adv-x="512" d="" />
<glyph unicode="&#xe900;" glyph-name="arrow_down" d="M936.487 684.891c-5.515 5.282-13.012 8.534-21.268 8.534s-15.753-3.252-21.279-8.545l-374.3-363.998-375.020 364.008c-5.515 5.282-13.012 8.534-21.268 8.534s-15.753-3.252-21.279-8.545c-5.425-5.208-8.802-12.535-8.802-20.651s3.377-15.443 8.804-20.652l395.542-383.946c5.395-5.291 12.792-8.556 20.952-8.556 0.116 0 0.233 0.001 0.349 0.002 8.241 0.039 15.732 3.29 21.279 8.566l395.582 383.94c5.799 5.161 9.434 12.645 9.434 20.979 0 7.995-3.346 15.209-8.714 20.317z" />
<glyph unicode="&#xe901;" glyph-name="arrow_right" d="M312.84 860.215c-5.449-5.547-8.813-13.159-8.813-21.556 0-8.117 3.143-15.499 8.278-20.997l359.045-379.020-368.876-370.215c-5.449-5.547-8.813-13.159-8.813-21.556 0-8.117 3.143-15.499 8.278-20.997 5.221-5.574 12.651-9.059 20.894-9.059 7.982 0 15.201 3.267 20.393 8.537l389.123 390.494c5.439 5.411 8.809 12.897 8.822 21.171 0.001 0.082 0.001 0.176 0.001 0.27 0 8.165-3.145 15.596-8.29 21.146l-378.736 400.506c-5.172 5.974-12.766 9.732-21.239 9.732-7.863 0-14.971-3.237-20.063-8.45z" />
<glyph unicode="&#xe903;" glyph-name="depature" horiz-adv-x="1260" d="M598.646 23.402l60.7 105.976 20.149 0.158c13.295 0.023 24.064 10.805 24.064 24.103 0 10.814-7.121 19.964-16.93 23.018l30.943 54.381 23.836 0.189c13.283 0.039 24.035 10.815 24.035 24.103 0 11.975-8.733 21.911-20.178 23.785l34.913 61.223 178.586 1.418c0.439-0.004 0.959-0.006 1.479-0.006 36.95 0 71.184 11.627 99.243 31.421 25.335 16.887 42.35 45.666 43.124 78.464-1.368 32.956-18.819 61.445-44.637 78.054-27.435 18.704-60.848 29.728-96.836 29.728-1.488 0-2.972-0.019-4.452-0.056l-177.8-1.413-36.612 61.771c11.409 2.048 19.953 11.898 19.953 23.743 0 13.312-10.791 24.103-24.103 24.103-0.12 0-0.239-0.001-0.358-0.003l-23.818-0.189-32.012 53.831c9.801 3.207 16.757 12.269 16.757 22.956 0 13.312-10.791 24.103-24.103 24.103-0.137 0-0.273-0.001-0.409-0.003l-20.129-0.157-62.432 104.952c-2.85 4.749-7.972 7.877-13.824 7.877-0.041 0-0.083 0-0.124 0l-75.99-0.599c-5.3-0.038-9.986-2.636-12.886-6.618-1.909-2.62-3.036-5.846-3.036-9.335 0-1.794 0.298-3.519 0.847-5.128l101.012-302.74-237.19-1.89c-3.923 0-8.003-0.189-12.209-0.457l-99.706 96.004c-2.889 2.779-6.822 4.49-11.155 4.49-0.049 0-0.099 0-0.148-0.001l-41.677-0.331c-8.797-0.045-15.912-7.186-15.912-15.99 0-0.028 0-0.056 0-0.083l1.166-142.474c-16.583-11.669-27.625-30.251-28.915-51.467 1.671-21.557 13.015-39.967 29.607-51.222l1.388-141.637c0.133-8.729 7.24-15.755 15.988-15.755 0.062 0 0.123 0 0.184 0.001l41.675 0.331c4.386 0.050 8.343 1.847 11.216 4.726l97.154 96.619c4.569-0.236 8.98-0.347 13.186-0.315l236.922 1.78-95.878-303.388c-0.467-1.427-0.736-3.070-0.736-4.775 0-3.574 1.182-6.871 3.175-9.523 2.932-3.898 7.597-6.419 12.85-6.419 0.047 0 0.094 0 0.141 0.001l75.989 0.599c5.921 0.006 11.091 3.216 13.87 7.989zM621.127 557.773l-97.154 290.8 44.741 0.362 172.52-290.202-120.186-0.961zM201.901 622.568l19.078 0.158 76.832-74.043-2.804-0.551c-34.806-7.172-65.653-18.143-94.35-32.734l1.245 107.092zM174.017 444.377c-0.205 25.206 58.163 58.4 127.464 72.578v0c14.639 3.288 31.597 5.373 48.971 5.776l606.736 4.826c62.117 0.488 112.939-33.619 113.286-76.060s-49.908-77.351-112.041-77.84l-606.429-4.758c-17.54 0.12-34.583 1.933-51.068 5.282l1.696-0.288c-69.474 13.028-128.41 45.324-128.614 70.498zM223.878 267.808l-19.078-0.142-0.866 105.125c26.761-13.197 57.83-23.71 90.412-29.969l2.33-0.373 1.953-0.347zM530.527 46.797l92.318 292.297 120.186 0.961-167.763-292.896z" />
<glyph unicode="&#xe904;" glyph-name="export_flight" d="M652.209 499.137l-302.269-468.614 88.001 1.008 215.843 347.041 242.011 2.773c35.335 0.445 63.808 29.193 63.808 64.591 0 35.675-28.92 64.596-64.596 64.596-0.277 0-0.554-0.002-0.83-0.005l-241.969-2.772-224.288 341.969-88.001-1.008 114.231-343.213-242.011-2.773-67.064 85.354-66.009-0.756 45.844-150.197-42.157-151.237 66.009 0.756 64.953 86.867 242.011 2.773z" />
<glyph unicode="&#xe906;" glyph-name="fill-plane" horiz-adv-x="2863" d="M805.529 960l919.307-461.6 977.71 315.809s122.863 15.142 153.146-78.736c3.647-15.345 5.738-32.964 5.738-51.071 0-36.169-8.343-70.389-23.21-100.841l-1856.184-647.561-720.737 64.892 850.954 335.277-425.693 450.785c-2.436 10.023-3.834 21.529-3.834 33.362 0 28.652 8.193 55.391 22.363 78.002 20.475 34.852 57.37 58.94 100.074 61.663zM228.853 42.423l327.922 120.7-389.354 239.669c-7.977 1.042-17.202 1.638-26.566 1.638-35.6 0-69.191-8.6-98.809-23.836-25.729-22.656-42.682-56.828-42.682-94.959 0-4.447 0.231-8.84 0.68-13.168 10.77-4.65 228.808-230.043 228.808-230.043z" />
<glyph unicode="&#xe907;" glyph-name="Icon-Plane" horiz-adv-x="1126" d="M662.298 360.627h356.582c0.165-0.001 0.361-0.002 0.557-0.002 35.269 0 65.91 19.811 81.403 48.912l0.242 0.497c6.122 11.606 9.716 25.364 9.716 39.962s-3.594 28.356-9.944 40.439l0.228-0.477c-15.739 29.584-46.373 49.384-81.631 49.384-0.2 0-0.401-0.001-0.601-0.002h-356.552l-310.81 388.557c-6.751 8.275-16.948 13.517-28.37 13.517-0.034 0-0.068 0-0.102 0h-18.811c-0.21 0.004-0.457 0.007-0.704 0.007-19.398 0-35.123-15.725-35.123-35.123 0-5.126 1.098-9.995 3.072-14.386l161.191-352.572h-275.789l-91.878 133.939h-46.080v-446.669h46.080l91.878 134.016h275.661l-161.152-352.768c-1.885-4.169-2.983-9.039-2.983-14.165 0-19.398 15.725-35.123 35.123-35.123 0.275 0 0.549 0.003 0.822 0.009l18.801-0.001c0.019 0 0.042 0 0.064 0 11.437 0 21.647 5.252 28.351 13.476z" />
<glyph unicode="&#xe908;" glyph-name="line-plane" horiz-adv-x="2204" d="M201.543-3.266c13.233-46.144 70.235-69.895 135.719-57.341 33.93 0 127.237 24.090 377.977 89.575 86.182 22.394 175.078 45.805 243.616 62.431v0l7.465 3.054c119.772 62.77 242.258 125.879 360.673 186.953 237.508 122.486 482.82 249.044 718.632 379.674v0c89.914 55.645 180.167 184.578 149.63 240.223-44.787 87.539-266.688 75.324-462.802-25.108-88.557-46.484-278.563-146.577-377.977-199.846-71.252-11.875-696.917 83.128-836.708 107.218-1.863 0.363-4.005 0.571-6.196 0.571-6.073 0-11.774-1.596-16.705-4.391l-125.372-67.772c-11.487-6.069-19.182-17.938-19.182-31.604 0-15.738 10.205-29.093 24.359-33.808 84.397-28.574 335.138-117.13 558.735-197.883l-19.679-10.518c-57.002-30.537-95.682-51.234-179.149-95.343l-200.864-33.93-400.032 137.076c-3.477 1.317-7.497 2.079-11.695 2.079-6.182 0-11.977-1.653-16.969-4.542l-86.018-46.736c-11.241-6.141-18.739-17.88-18.739-31.37 0-9.228 3.509-17.637 9.265-23.965l231.714-257.159c-24.805-13.753-41.318-39.783-41.318-69.669 0-6.215 0.714-12.263 2.065-18.067l-0.105 0.536zM92.968 355.372l33.93 17.983 393.246-131.647c2.598-0.671 5.58-1.056 8.652-1.056s6.054 0.385 8.901 1.11l214.866 33.876c4.076 0.73 7.719 2.028 11.052 3.828 87.005 45.709 126.364 67.764 184.723 97.961l90.253 48.18c11.417 6.090 19.055 17.922 19.055 31.537 0 15.439-9.821 28.584-23.556 33.53-192.291 69.973-424.031 152.083-557.036 198.228l41.734 22.054c52.93-8.482 237.508-38.001 419.032-63.109 407.836-57.002 432.265-44.448 447.533-35.966 98.396 52.591 291.117 154.041 380.013 200.864 188.989 97.039 341.673 81.771 367.12 59.038-24.165-62.15-66.272-112.905-119.914-147.207-235.33-131.356-480.642-257.575-717.472-379.383-117.397-60.395-237.508-122.826-357.28-185.256-67.86-16.626-155.738-39.698-240.223-61.752-139.791-36.644-330.476-86.521-359.995-87.539-1.632 0.278-3.512 0.437-5.429 0.437s-3.797-0.159-5.627-0.464c-6.122-2.028-13.394-3.214-20.943-3.214-12.675 0-24.57 3.342-34.851 9.192 10.718 11.258 24.211 19.691 39.479 23.779 14.475 5.193 24.228 18.3 24.228 33.686 0 9.318-3.577 17.8-9.433 24.148z" />
<glyph unicode="&#xe90a;" glyph-name="personal_info" horiz-adv-x="1260" d="M630.264 881.231c-0.173 0.001-0.377 0.001-0.581 0.001-6.077 0-12.076-0.338-17.978-0.996-4.743 0.729-11.076 1.107-17.497 1.107-0.24 0-0.479-0.001-0.719-0.002-0.792 0.014-1.77 0.023-2.749 0.023-47.361 0-90.277-19.034-121.514-49.87-39.366-40.264-59.169-102.287-59.027-184.302 0.252-140.682 53.437-223.5 98.005-268.225 27.165-28.172 60.48-50.221 97.799-64.005 3.187-1.016 4.769-1.268 6.407-1.279 1.492 0.006 2.93 0.207 4.297 0.578 2.089 0.572 218.547 62.39 208.417 333.592-8.145 216.552-151.205 233.377-194.859 233.377zM612.62 347.963c-27.569 10.177-169.417 73.602-169.826 299.323-0.142 72.799 16.526 126.834 49.499 160.689 25.382 24.765 60.121 40.041 98.428 40.041 0.959 0 1.916-0.010 2.87-0.029 0.174 0.005 0.548 0.007 0.922 0.007 5.379 0 10.674-0.357 15.864-1.048 0.138-0.053 0.998-0.121 1.873-0.121s1.735 0.068 2.574 0.199c4.239 0.543 9.251 0.859 14.336 0.859 0.383 0 0.765-0.002 1.147-0.005 46.447 0 155.338-19.613 162.096-201.176 8.46-225.957-150.087-288.941-179.783-298.74zM786.322 376.446c-0.349-1.276-0.549-2.742-0.549-4.254 0-7.635 5.105-14.078 12.088-16.102 43.914-11.766 150.772-47.291 209.55-126.202v-181.847h-769.623v181.847c58.053 77.856 163.43 113.554 206.627 125.416 7.062 2.072 12.131 8.493 12.131 16.098 0 1.559-0.213 3.068-0.612 4.5-1.763 7.043-8.14 12.262-15.736 12.262-1.51 0-2.971-0.206-4.357-0.592-58.664-16.121-166.451-56.151-227.592-142.356-1.965-2.721-3.145-6.121-3.151-9.798v-204.092c0-0.047-0.001-0.103-0.001-0.159 0-9.064 7.29-16.425 16.327-16.54h802.338c9.046 0.106 16.338 7.464 16.338 16.525 0 0.061 0 0.123-0.001 0.184v204.082c0 0.002 0 0.004 0 0.006 0 3.676-1.181 7.076-3.184 9.842-64.195 90.583-182.711 130.251-230.666 143.122-1.222 0.328-2.625 0.516-4.072 0.516-7.642 0-14.058-5.253-15.833-12.345z" />
<glyph unicode="&#xe90b;" glyph-name="return" horiz-adv-x="1260" d="M656.148 873.354l-60.448-105.693h-19.834c-13.209-0.191-23.843-10.944-23.843-24.18 0-10.671 6.912-19.728 16.504-22.938l-30.817-54.243h-23.457c-13.255-0.11-23.957-10.88-23.957-24.15 0-11.867 8.559-21.735 19.84-23.767l-34.764-61.068-175.829-0.268c-0.736 0.012-1.604 0.018-2.473 0.018-36.093 0-69.523-11.398-96.888-30.79-25.186-16.957-42.098-45.621-42.987-78.285 0.985-32.912 17.977-61.521 43.391-78.521 27.115-19.095 60.4-30.386 96.321-30.386 1.038 0 2.073 0.009 3.106 0.028l175.091 0.187 35.667-61.944c-11.384-2.092-19.896-11.939-19.896-23.773 0-13.288 10.731-24.069 24-24.15h23.465l31.161-53.973c-9.735-3.274-16.623-12.318-16.623-22.97 0-13.268 10.685-24.040 23.92-24.181h19.847l60.763-105.551c2.775-4.742 7.843-7.877 13.643-7.877 0.011 0 0.022 0 0.033 0l74.829 0.11c5.241 0.017 9.877 2.591 12.729 6.539 1.912 2.65 3.039 5.907 3.039 9.426 0 1.76-0.282 3.453-0.803 5.039l-97.5 303.652 233.519 0.268c3.86 0 7.877 0.142 12.020 0.378l97.532-96.744c2.831-2.809 6.724-4.55 11.024-4.569h41.058c8.716 0.071 15.754 7.153 15.754 15.879 0 0.039 0 0.078 0 0.117l-0.221 142.629c16.469 11.694 27.444 30.195 28.803 51.315-1.427 21.505-12.446 39.97-28.731 51.478l-0.419 141.771c0 0.019 0 0.041 0 0.064 0 8.726-7.038 15.808-15.747 15.879h-41.061c-4.308-0.028-8.201-1.78-11.028-4.6l-96.287-96.098c-4.49 0.268-8.822 0.394-12.981 0.394h-49.955l-183.249-0.284 96.272 303.088c0.482 1.462 0.761 3.145 0.761 4.893 0 3.541-1.142 6.814-3.077 9.474-2.86 3.94-7.503 6.503-12.744 6.507l-74.831-0.11c-5.826-0.031-10.901-3.22-13.602-7.942zM630.516 338.59l93.672-291.714h-44.111l-167.889 291.541 118.327 0.173zM1042.747 271.021h-18.794l-75.146 74.579 2.725 0.473c34.319 6.96 64.766 17.744 93.065 32.141l-1.897-107.193zM1071.372 449.213c0-25.206-57.643-58.084-126.031-71.838v0c-14.472-3.199-31.197-5.176-48.334-5.464l-50.175-0.003-547.1-0.819c-61.156-0.095-110.97 34.391-111.033 76.863s49.64 77.099 110.813 77.194l597.055 0.835c17.361-0.234 34.135-2.162 50.34-5.625l-1.676 0.3c68.324-13.548 126.031-46.269 126.141-71.444zM1023.433 626.286h18.794l0.158-105.236c-26.277 13.371-56.765 24.067-88.787 30.534l-2.318 0.391-1.922 0.362zM722.976 849.487l-92.822-291.998-118.327-0.173 167.164 292.108z" />
<glyph unicode="&#xe90d;" glyph-name="flight-arv" horiz-adv-x="1126" d="M627.2 742.4c-84.48-104.96-174.080-192-197.12-194.56-25.6-2.56-115.2-5.12-202.24-7.68-122.88-2.56-163.84-12.8-192-53.76-61.44-84.48 7.68-122.88 225.28-128 102.4-2.56 194.56-7.68 202.24-7.68 7.68-2.56 84.48-92.16 166.4-197.12 207.36-266.24 279.040-258.56 151.040 17.92-35.84 74.24-64 148.48-64 163.84 0 20.48 48.64 28.16 130.56 25.6 110.080-2.56 135.68-12.8 171.52-74.24 79.36-128 92.16-94.72 81.92 212.48-2.56 92.16-7.68 171.52-12.8 176.64s-38.4-23.040-71.68-64c-48.64-56.32-84.48-71.68-171.52-74.24-133.12-5.12-148.48 28.16-76.8 163.84 97.28 192 107.52 232.96 56.32 232.96-25.6 0-112.64-84.48-197.12-192z" />
<glyph unicode="&#xe90e;" glyph-name="flight-dep" horiz-adv-x="1126" d="M281.6 896c0-23.040 30.72-97.28 66.56-168.96s58.88-143.36 53.76-158.72c-5.12-15.36-61.44-30.72-125.44-30.72-99.84-2.56-122.88 7.68-163.84 69.12-81.92 122.88-92.16 104.96-92.16-171.52 2.56-245.76 0-240.64 74.24-153.6 56.32 64 87.040 76.8 192 79.36 76.8 2.56 122.88-7.68 122.88-25.6 0-15.36-33.28-99.84-76.8-189.44-64-135.68-69.12-163.84-35.84-176.64 20.48-7.68 48.64-5.12 58.88 7.68s84.48 104.96 163.84 204.8l145.92 181.76 166.4-2.56c197.12-5.12 268.8 17.92 268.8 84.48 0 74.24-43.52 92.16-243.2 94.72-97.28 2.56-186.88 5.12-194.56 7.68s-81.92 89.6-163.84 194.56c-145.92 184.32-217.6 235.52-217.6 153.6z" />
<glyph unicode="&#xe90f;" glyph-name="add" d="M1024 472.381h-487.619v487.619h-48.762v-487.619h-487.619v-48.762h487.619v-487.619h48.762v487.619h487.619z" />
<glyph unicode="&#xe910;" glyph-name="avatar" d="M508.289 408.24c1.060 0 2.121 0 3.393 0 0.424 0 0.848 0 1.272 0 0.636 0 1.484 0 2.121 0 62.131 1.060 112.388 22.902 149.497 64.676 81.64 92.031 68.069 249.797 66.584 264.853-5.301 113.024-58.738 167.097-102.845 192.331-32.868 18.873-71.25 29.051-114.084 29.899h-1.484c-0.212 0-0.636 0-0.848 0h-1.272c-23.538 0-69.765-3.817-114.084-29.051-44.531-25.234-98.816-79.308-104.118-193.18-1.484-15.056-15.056-172.823 66.584-264.853 36.897-41.774 87.153-63.616 149.285-64.676zM349.038 732.468c0 0.636 0.212 1.272 0.212 1.696 6.998 152.041 114.932 168.369 161.16 168.369h0.848c0.424 0 1.060 0 1.696 0 57.254-1.272 154.586-24.598 161.16-168.369 0-0.636 0-1.272 0.212-1.696 0.212-1.484 15.056-145.68-52.377-221.595-26.719-30.111-62.343-44.955-109.207-45.379-0.424 0-0.636 0-1.060 0v0c-0.424 0-0.636 0-1.060 0-46.651 0.424-82.488 15.268-108.995 45.379-67.221 75.491-52.801 220.322-52.589 221.595zM947.449 146.568c0 0.212 0 0.424 0 0.636 0 1.696-0.212 3.393-0.212 5.301-1.272 41.986-4.029 140.166-96.060 171.55-0.636 0.212-1.484 0.424-2.121 0.636-95.636 24.386-175.155 79.52-176.003 80.156-12.935 9.118-30.748 5.937-39.866-6.998s-5.937-30.748 6.998-39.866c3.605-2.545 88.002-61.283 193.604-88.426 49.408-17.6 54.922-70.401 56.406-118.749 0-1.908 0-3.605 0.212-5.301 0.212-19.085-1.060-48.56-4.453-65.524-34.352-19.509-169.006-86.941-373.848-86.941-203.994 0-339.496 67.645-374.060 87.153-3.393 16.964-4.877 46.439-4.453 65.524 0 1.696 0.212 3.393 0.212 5.301 1.484 48.348 6.998 101.149 56.406 118.749 105.602 27.143 189.999 86.093 193.604 88.426 12.935 9.118 16.116 26.931 6.998 39.866s-26.931 16.116-39.866 6.998c-0.848-0.636-79.944-55.77-176.003-80.156-0.848-0.212-1.484-0.424-2.121-0.636-92.031-31.596-94.787-129.776-96.060-171.55 0-1.908 0-3.605-0.212-5.301 0-0.212 0-0.424 0-0.636-0.212-11.027-0.424-67.645 10.815-96.060 2.121-5.513 5.937-10.179 11.027-13.359 6.362-4.241 158.827-101.361 413.926-101.361s407.564 97.332 413.926 101.361c4.877 3.181 8.906 7.846 11.027 13.359 10.603 28.203 10.391 84.821 10.179 95.848z" />
<glyph unicode="&#xe911;" glyph-name="oneway2" horiz-adv-x="2112" d="M2037.786 838.819c-145.218 84.627-310.212 39.684-423.005-13.040l-336.335-156.823-578.437 291.044-344.463-14.778 477.641-484.291-304.257-144.609-316.862 120.529-212.067-98.84 191.639-237.973c-20.255-24.167-38.597-58.157-21.733-93.885 21.733-46.638 86.061-70.153 191.508-70.153q32.425 0 70.066 2.956c115.792 9.128 241.276 38.684 319.775 75.282l1202.251 560.703c103.839 48.42 155.562 99.275 158.127 155.432 1.13 29.078-10.562 71.587-73.848 108.446zM1916.561 653.656l-1202.208-560.703c-66.85-31.165-176.643-57.287-279.699-66.545-105.317-9.432-161.604 2.434-180.381 12.475 7.357 9.423 15.358 17.726 24.136 25.137l31.456 27.674-172.557 214.415 78.238 36.467 317.036-120.66 448.432 212.98-425.96 431.828 126.049 5.433 595.91-299.694 374.497 174.644c136.785 63.764 252.099 69.545 342.507 16.604v0c22.819-13.3 30.773-24.862 30.426-29.426 0.13-0.304-2.478-31.469-107.881-80.628z" />
<glyph unicode="&#xe912;" glyph-name="payment_flight_left" horiz-adv-x="1078" d="M1077.895 448c0 43.116-37.726 80.842-80.842 80.842h-296.4l-269.495 431.073h-107.789l134.737-431.158h-296.4l-80.863 107.789h-80.842l53.916-188.547-53.895-188.632h80.821l80.842 107.789h296.421l-134.737-431.158h107.789l269.474 431.158h296.421c43.116 0 80.842 37.726 80.842 80.842z" />
<glyph unicode="&#xe913;" glyph-name="payment_flight_right" horiz-adv-x="1078" d="M0 450.746c-0.169-43.098 37.394-80.957 80.492-81.126l296.299-1.162 267.672-432.036 107.745-0.423-133.097 431.508 296.299-1.162 80.386-108.062 80.809-0.317-53.006 188.765 54.591 188.258-80.809 0.317-81.231-107.428-296.299 1.162 136.371 430.536-107.745 0.423-271.053-429.924-296.299 1.162c-43.098 0.232-80.957-37.394-81.126-80.492z" />
<glyph unicode="&#xe914;" glyph-name="phone-call" d="M1001.032 150.75l-158.135 158.155c-31.495 31.368-83.662 30.408-116.258-2.189l-79.664-79.664c-5.029 2.785-10.24 5.681-15.719 8.754-50.307 27.876-119.17 66.082-191.636 138.599-72.668 72.663-110.926 141.637-138.877 191.98-2.967 5.338-5.787 10.473-8.572 15.356l79.755 79.719c32.652 32.652 33.557 84.804 2.118 116.258l-158.14 158.175c-31.419 31.419-83.606 30.463-116.258-2.189l-44.571-44.823 1.228-1.213c-14.941-19.066-27.441-41.063-36.721-64.778-8.572-22.573-13.91-44.121-16.351-65.698-20.875-173.116 58.228-331.322 272.912-546.027 296.754-296.734 535.913-274.323 546.224-273.221 22.487 2.679 44.009 8.052 65.9 16.553 23.514 9.189 45.495 21.653 64.541 36.559l0.976-0.849 45.152 44.212c32.581 32.647 33.521 84.799 2.098 116.329zM963.806 69.58l-19.9-19.864-7.925-7.617c-12.48-12.065-34.082-29.013-65.628-41.351-17.908-6.894-35.563-11.322-53.527-13.46-2.259-0.217-227.199-19.409-505.596 258.967-236.712 236.702-274.646 373.097-258.745 505.202 1.991 17.509 6.384 35.129 13.405 53.542 12.444 31.727 29.377 53.31 41.351 65.81l27.512 27.785c13.258 13.293 33.936 14.309 46.057 2.189l158.135-158.135c12.1-12.136 11.145-32.814-2.133-46.148l-106.796-106.69 9.856-16.589c5.479-9.245 11.272-19.606 17.458-30.863 29.377-52.981 69.57-125.503 147.192-203.054 77.42-77.46 149.835-117.618 202.655-146.919 11.413-6.313 21.835-12.121 31.186-17.691l16.624-9.856 106.726 106.761c13.314 13.258 34.062 14.239 46.183 2.153l158.064-158.1c12.085-12.116 11.125-32.794-2.153-46.072z" />
<glyph unicode="&#xe915;" glyph-name="plane_depature" horiz-adv-x="2050" d="M0.358 291.569c1.958 17.984 12.505 33.14 27.396 41.442l2.32 1.112c4.705 2.046 116.409 50.072 184.894 59.995 2.503 0.341 5.397 0.536 8.336 0.536 11.277 0 21.885-2.869 31.131-7.918l229.562-84.068c44.855 23.834 214.814 114.21 415.154 219.929l-473.461 257.931c-12.896 6.023-21.671 18.883-21.671 33.793 0 15.575 9.576 28.913 23.161 34.449l159.825 76.195c11.48 5.040 24.862 7.973 38.928 7.973 6.126 0 12.121-0.556 17.939-1.621l726.745-161.53c149.654 77.691 273.224 140.652 324.728 164.18 37.797 17.287 83.778 25.982 136.612 25.982 86.949 0 193.844-25.931 213.587-64.137 1.023-1.432 52.988-160.906-247.548-339.918l-1120.922-590.484c-15.502-8.067-33.488-14.658-52.375-18.852-39.929-6.85-84.213-10.608-129.375-10.608-4.486 0-8.964 0.037-13.433 0.111l-37.993-0.009v1.637c-21.78 0.011-42.089 6.297-59.221 17.147l-366.162 288.708-0.869 1.074c-10.893 10.035-17.694 24.37-17.694 40.294 0 2.347 0.148 4.659 0.434 6.928zM443.899-33.261v0 0z" />
<glyph unicode="&#xe916;" glyph-name="plane_landing" horiz-adv-x="1531" d="M18.962 903.956c7.313 5.505 16.55 8.816 26.559 8.816 5.031 0 9.866-0.836 14.374-2.378l1.415-0.581c3.877-1.728 95.401-42.433 139.688-78.251 8.407-7.058 14.575-16.534 17.445-27.353l77.703-186.541c39.526-13.779 189.243-66.115 365.212-128.184l-108.717 430.652c-0.941 2.814-1.485 6.054-1.485 9.421 0 16.919 13.716 30.634 30.634 30.634 4.716 0 9.183-1.066 13.173-2.969l135.121-53.9c14.794-6.696 26.875-17.18 35.329-30.232l309.403-530.712c130.628-47.11 237.912-86.594 280.935-104.587 31.604-13.189 62.575-36.155 92.114-68.095 48.754-52.757 92.704-131.766 80.652-165.055-0.464-1.306-67.927-122.201-344.1-40.2l-984.222 347.724c-15.911 5.97-29.664 13.34-42.246 22.254-30.689 24.141-58.451 50.127-83.806 78.32l-8.494 9.027-11.419 12.304-2.486 2.697 0.969 0.885c-11.244 12.136-19.256 27.42-22.576 44.384l-30.392 384.035v1.138c0.063 15.144 7.582 28.518 19.074 36.65zM70.539 453.963v0 0z" />
<glyph unicode="&#xe917;" glyph-name="plane_left" horiz-adv-x="1129" d="M533.939-54.394l72.117 124.923h23.687c15.722 0.054 28.445 12.811 28.445 28.54 0 12.684-8.274 23.435-19.719 27.151l36.787 64.102h28.012c0.024 0 0.052 0 0.080 0 15.748 0 28.515 12.767 28.515 28.515 0 14.116-10.257 25.837-23.725 28.114l41.498 72.166 209.965 0.453c44.382 0 86.274 12.9 118.008 36.033 33.544 24.467 51.976 57.508 51.9 93.038s-18.658 68.521-52.303 92.837c-31.834 23.008-73.777 35.631-118.184 35.531l-209.286-0.453-42.747 73.173c13.566 2.363 23.749 14.049 23.749 28.114 0 15.748-12.767 28.515-28.515 28.515-0.093 0-0.185 0-0.277-0.001h-27.998l-37.090 63.97c11.606 3.797 19.842 14.528 19.842 27.182 0 15.762-12.778 28.54-28.54 28.54-0.018 0-0.037 0-0.055 0h-23.684l-72.645 124.571c-3.331 5.635-9.376 9.354-16.289 9.354-0.011 0-0.022 0-0.032 0l-89.365-0.176c-10.391-0.051-18.794-8.486-18.794-18.884 0-2.076 0.335-4.074 0.954-5.942l116.662-358.743-278.864-0.453c-4.602 0-9.404-0.176-14.358-0.453l-116.6 114.11c-3.398 3.328-8.055 5.381-13.191 5.381-0.021 0-0.042 0-0.064 0h-49.005c-10.394-0.029-18.809-8.461-18.809-18.859 0-0.018 0-0.035 0-0.053l0.352-168.472c-20.72-17.024-34.424-37.316-34.374-60.902s13.83-43.803 34.625-60.752l0.352-167.343c0.029-10.394 8.461-18.809 18.859-18.809 0.018 0 0.035 0 0.053 0h49.006c5.159 0.012 9.83 2.093 13.228 5.458l114.913 113.606c5.356-0.302 10.536-0.453 15.515-0.453h59.645l218.766 0.453-114.739-358.097c-0.571-1.72-0.901-3.701-0.901-5.758 0-10.416 8.444-18.859 18.859-18.859 0.016 0 0.032 0 0.048 0l89.365 0.176c6.952 0.006 13.023 3.768 16.296 9.365zM564.114 577.512l-112.048 344.619h52.604l200.787-344.493-141.318-0.302zM71.765 657.047h22.43l89.82-88.009-3.294-0.629c-31.507-6.261-73.274-18.708-108.679-36.888l-0.277 125.526zM37.718 446.604c0 29.747 68.798 68.672 150.37 84.967v0c17.278 3.788 37.254 6.133 57.716 6.484l59.915 0.004 653.381 1.383c72.922 0.151 132.567-40.56 132.668-90.75s-59.243-91.152-132.265-91.303l-713.026-1.358c-20.685 0.262-40.686 2.52-60.020 6.59l2.009-0.354c-81.673 15.842-150.697 54.465-150.747 84.338zM95.1 237.419h-22.43l-0.251 124.344c35.505-18.155 77.297-30.3 108.83-36.461v0l2.288-0.427zM454.052-26.131l110.64 345.097 141.318 0.302-199.353-345.399z" />
<glyph unicode="&#xe918;" glyph-name="plane_right" horiz-adv-x="1129" d="M595.481 950.37l-72.116-124.945h-23.686c-0.029 0-0.063 0-0.097 0-15.762 0-28.539-12.778-28.539-28.539 0-12.773 8.391-23.585 19.96-27.227l-36.761-64.124h-28.011c-0.024 0-0.052 0-0.080 0-15.748 0-28.514-12.766-28.514-28.514 0-14.116 10.257-25.836 23.725-28.114l-41.472-72.189-209.96-0.478c-44.381 0-86.272-12.899-118.005-36.058-33.543-24.466-51.974-57.531-51.874-93.036s18.657-68.52 52.326-92.835c31.833-23.008 73.8-35.605 118.181-35.505l209.281 0.478 42.746-73.146c-13.566-2.363-23.748-14.049-23.748-28.113 0-15.748 12.766-28.514 28.514-28.514 0.093 0 0.185 0 0.277 0.001h27.997l37.265-63.893c-11.565-3.821-19.763-14.531-19.763-27.156 0-15.762 12.777-28.539 28.539-28.539h23.687l72.669-124.618c3.331-5.634 9.375-9.354 16.288-9.354 0.011 0 0.022 0 0.032 0l89.363 0.201c10.401 0.037 18.819 8.477 18.819 18.884 0 2.076-0.335 4.074-0.954 5.942l-116.936 358.759 278.832 0.754c4.602 0 9.404 0.176 14.358 0.453l116.572-114.208c3.398-3.328 8.055-5.381 13.191-5.381 0.021 0 0.042 0 0.064 0h49.004c10.394 0.029 18.808 8.461 18.808 18.859 0 0.018 0 0.035 0 0.053l-0.402 168.468c20.719 17.023 34.398 37.34 34.348 60.901s-13.855 43.802-34.624 60.725l-0.402 167.339c-0.029 10.394-8.461 18.808-18.859 18.808-0.018 0-0.035 0-0.053 0h-49.005c-5.159-0.012-9.83-2.093-13.228-5.458l-114.885-113.628c-5.356 0.302-10.536 0.453-15.514 0.453l-278.404-0.654 114.711 358.164c0.571 1.72 0.901 3.701 0.901 5.758 0 10.415-8.443 18.859-18.859 18.859-0.016 0-0.032 0-0.048 0l-89.362-0.201c-6.927-0.020-12.975-3.767-16.246-9.34zM565.307 318.479l112.146-344.485h-52.603l-200.857 344.485 141.314 0.327zM1057.669 239.046h-22.429l-89.843 88.007 3.294 0.629c31.507 6.311 73.247 18.632 108.651 36.938l0.302-125.523zM1091.665 449.609c0-29.746-68.771-68.671-150.341-84.99v0c-17.247-3.758-37.183-6.076-57.602-6.409l-713.265-1.688c-72.92-0.176-132.564 40.534-132.69 90.698s59.216 91.15 132.262 91.326l713.008 1.66c20.684-0.262 40.685-2.52 60.018-6.59l-2.009 0.354c81.595-15.992 150.643-54.615 150.693-84.361zM1034.335 658.79h22.429l0.201-124.291c-35.505 18.155-77.295 30.174-108.827 36.435v0l-2.288 0.427zM675.316 922.232l-110.637-345.113-141.314-0.327 199.349 345.315z" />
<glyph unicode="&#xe919;" glyph-name="return2" horiz-adv-x="1149" d="M1048.855 897.65c-74.766 43.558-159.645 20.448-217.722-6.667l-173.113-80.717-297.723 149.734-177.296-7.606 245.843-249.244-156.602-74.431-163.090 62.037-109.152-50.873 98.637-122.485c-10.425-12.439-19.866-29.933-11.186-48.323 11.186-24.005 44.296-36.108 98.57-36.108q16.689 0 36.063 1.521c59.598 4.698 124.186 19.911 164.589 38.748l618.803 288.596c53.357 24.877 79.979 51.119 81.299 79.979 0.671 14.989-5.302 36.869-37.92 55.84zM986.46 802.346l-618.78-288.596c-34.408-16.041-90.919-29.486-143.962-34.251-54.207-4.855-83.178 1.253-92.843 6.421 3.787 4.85 7.905 9.124 12.423 12.938l16.213 14.311-88.838 110.293 40.269 18.77 163.18-62.104 230.809 109.622-219.243 222.263 64.878 2.796 306.694-154.253 192.755 89.89c70.404 32.819 129.756 35.795 176.289 8.546v0c11.745-6.846 15.839-12.797 15.66-15.146 0.089-0.157-1.253-16.197-55.504-41.5zM220.16 15.42c17.271 79.464 88.57 118.727 145.416 137.653l169.22 56.422 85.729 299.782 119.913 110.539 18.546-335.867 154.007 50.247 61.097 150.114 106.713 35.571 23.446-150.562c15.66-1.924 34.117-8.054 41.656-26.578 9.844-24.184-2.908-54.341-38.032-89.823q-10.783-10.917-24.385-22.506c-41.835-35.638-94.364-67.115-133.85-80.359l-604.776-201.681c-52.238-17.428-88.055-16.421-109.487 3.020-11.096 10.112-22.774 29.329-15.213 64.028zM328.261-10.778l604.82 201.793c33.558 11.186 79.688 38.703 117.317 70.024 38.457 32.014 52.82 55.258 55.37 65.214-3.984 0.678-8.573 1.065-13.252 1.065-1.453 0-2.897-0.037-4.332-0.111l-20.247-0.551-21.119 135.595-39.33-13.11-61.187-150.316-227.051-73.827-16.51 299.356-43.916-40.471-88.301-308.82-188.415-62.842c-68.816-22.953-109.152-59.71-119.935-109.241v0c-2.707-12.483-1.119-19.352 0.604-20.94 0.134-0.089 12.416-10.492 65.437 7.204z" />
<glyph unicode="&#xe91a;" glyph-name="shopping-cart-facing-left" d="M1007.004 814.21h-178.456c-9.399 0-16.996-7.597-16.996-16.996v-371.954c0-60.335-49.084-109.419-109.419-109.419h-515.45l-146.487 464.378h633.299c9.399 0 16.996 7.597 16.996 16.996s-7.597 16.996-16.996 16.996h-656.499c-5.405 0-10.503-2.566-13.716-6.951-3.195-4.368-4.113-9.994-2.498-15.16l157.212-498.352c2.243-7.070 8.804-11.88 16.214-11.88h527.925c79.065 0 143.411 64.329 143.411 143.411v354.941h144.465v-5.133c0-45.294-36.847-82.141-82.141-82.141-9.399 0-16.996-7.597-16.996-16.996s7.597-16.996 16.996-16.996c64.040 0 116.133 52.092 116.133 116.133v22.129c0 9.399-7.597 16.996-16.996 16.996zM755.228 262.422c-9.399 0-16.996-7.597-16.996-16.996s7.597-16.996 16.996-16.996c31.051 0 56.324-25.273 56.324-56.324s-25.273-56.324-56.324-56.324c-31.051 0-56.341 25.273-56.341 56.324 0 13.648 4.946 26.819 13.937 37.102 4.385 5.031 5.422 12.152 2.668 18.203-2.753 6.085-8.804 9.977-15.466 9.977h-463.273c-16.265 15.619-38.241 25.358-62.545 25.358-8.906 0-17.744-1.292-26.225-3.875-8.991-2.702-14.073-12.203-11.353-21.177 2.719-8.991 12.237-14.090 21.177-11.353 5.303 1.598 10.809 2.413 16.401 2.413 31.153 0 56.494-25.341 56.494-56.477 0-31.153-25.341-56.494-56.494-56.494-31.136 0-56.477 25.341-56.477 56.494 0 6.611 1.122 13.104 3.348 19.256 3.195 8.838-1.377 18.576-10.215 21.755-8.889 3.229-18.593-1.377-21.755-10.215-3.569-9.892-5.371-20.242-5.371-30.796 0-49.9 40.586-90.486 90.469-90.486 49.9 0 90.486 40.603 90.486 90.486 0 10.979-2.26 21.381-5.864 31.119l411.656 0.017c-3.671-9.943-5.592-20.531-5.592-31.306 0-49.815 40.518-90.316 90.333-90.316s90.316 40.518 90.316 90.316c0 49.815-40.501 90.316-90.316 90.316z" />
<glyph unicode="&#xe91b;" glyph-name="cancel" d="M463.056 451.424l-453.248-453.248c-12.592-12.592-12.592-32.992 0-45.584 6.288-6.304 14.544-9.44 22.784-9.44 8.256 0 16.496 3.136 22.784 9.44l456.656 456.656 456.656-456.656c6.304-6.304 14.544-9.44 22.784-9.44s16.496 3.136 22.784 9.44c12.592 12.592 12.592 32.992 0 45.584l-453.232 453.248 453.536 453.568c12.592 12.592 12.592 32.992 0 45.584-12.592 12.576-32.992 12.576-45.568 0l-456.944-456.976-456.992 456.96c-12.592 12.576-32.976 12.576-45.568 0-12.592-12.592-12.592-32.992 0-45.584l453.568-453.552z" />
<glyph unicode="&#xe93a;" glyph-name="cart" d="M384 32c0-53.019-42.981-96-96-96s-96 42.981-96 96c0 53.019 42.981 96 96 96s96-42.981 96-96zM1024 32c0-53.019-42.981-96-96-96s-96 42.981-96 96c0 53.019 42.981 96 96 96s96-42.981 96-96zM1024 448v384h-768c0 35.346-28.654 64-64 64h-192v-64h128l48.074-412.054c-29.294-23.458-48.074-59.5-48.074-99.946 0-70.696 57.308-128 128-128h768v64h-768c-35.346 0-64 28.654-64 64 0 0.218 0.014 0.436 0.016 0.656l831.984 127.344z" />
<glyph unicode="&#xe942;" glyph-name="phone" d="M704 320c-64-64-64-128-128-128s-128 64-192 128-128 128-128 192 64 64 128 128-128 256-192 256-192-192-192-192c0-128 131.5-387.5 256-512s384-256 512-256c0 0 192 128 192 192s-192 256-256 192z" />
<glyph unicode="&#xe971;" glyph-name="user" d="M576 253.388v52.78c70.498 39.728 128 138.772 128 237.832 0 159.058 0 288-192 288s-192-128.942-192-288c0-99.060 57.502-198.104 128-237.832v-52.78c-217.102-17.748-384-124.42-384-253.388h896c0 128.968-166.898 235.64-384 253.388z" />
<glyph unicode="&#xe9af;" glyph-name="airplane" d="M768 320.032l-182.82 182.822 438.82 329.15-128.010 127.996-548.52-219.442-172.7 172.706c-49.78 49.778-119.302 61.706-154.502 26.508-35.198-35.198-23.268-104.726 26.51-154.5l172.686-172.684-219.464-548.582 127.99-128.006 329.19 438.868 182.826-182.828v-255.98h127.994l63.992 191.988 191.988 63.996v127.992l-255.98-0.004z" />
<glyph unicode="&#xea0a;" glyph-name="plus" d="M992 576h-352v352c0 17.672-14.328 32-32 32h-192c-17.672 0-32-14.328-32-32v-352h-352c-17.672 0-32-14.328-32-32v-192c0-17.672 14.328-32 32-32h352v-352c0-17.672 14.328-32 32-32h192c17.672 0 32 14.328 32 32v352h352c17.672 0 32 14.328 32 32v192c0 17.672-14.328 32-32 32z" />
<glyph unicode="&#xea40;" glyph-name="arrow-left2" d="M402.746 82.746l-320 320c-24.994 24.992-24.994 65.516 0 90.51l320 320c24.994 24.992 65.516 24.992 90.51 0 24.994-24.994 24.994-65.516 0-90.51l-210.746-210.746h613.49c35.346 0 64-28.654 64-64s-28.654-64-64-64h-613.49l210.746-210.746c12.496-12.496 18.744-28.876 18.744-45.254s-6.248-32.758-18.744-45.254c-24.994-24.994-65.516-24.994-90.51 0z" />
<glyph unicode="&#xea41;" glyph-name="circle-up" d="M0 448c0-282.77 229.23-512 512-512s512 229.23 512 512-229.23 512-512 512-512-229.23-512-512zM928 448c0-229.75-186.25-416-416-416s-416 186.25-416 416 186.25 416 416 416 416-186.25 416-416zM706.744 290.744l90.512 90.512-285.256 285.254-285.254-285.256 90.508-90.508 194.746 194.744z" />
<glyph unicode="&#xea42;" glyph-name="circle-right" d="M512 960c-282.77 0-512-229.23-512-512s229.23-512 512-512 512 229.23 512 512-229.23 512-512 512zM512 32c-229.75 0-416 186.25-416 416s186.25 416 416 416 416-186.25 416-416-186.25-416-416-416zM354.744 253.256l90.512-90.512 285.254 285.256-285.256 285.254-90.508-90.508 194.744-194.746z" />
<glyph unicode="&#xea43;" glyph-name="circle-down" d="M1024 448c0 282.77-229.23 512-512 512s-512-229.23-512-512 229.23-512 512-512 512 229.23 512 512zM96 448c0 229.75 186.25 416 416 416s416-186.25 416-416-186.25-416-416-416-416 186.25-416 416zM317.256 605.256l-90.512-90.512 285.256-285.254 285.254 285.256-90.508 90.508-194.746-194.744z" />
<glyph unicode="&#xea44;" glyph-name="circle-left" d="M512-64c282.77 0 512 229.23 512 512s-229.23 512-512 512-512-229.23-512-512 229.23-512 512-512zM512 864c229.75 0 416-186.25 416-416s-186.25-416-416-416-416 186.25-416 416 186.25 416 416 416zM669.256 642.744l-90.512 90.512-285.254-285.256 285.256-285.254 90.508 90.508-194.744 194.746z" />
<glyph unicode="" glyph-name="circle-left" d="M512-64c282.77 0 512 229.23 512 512s-229.23 512-512 512-512-229.23-512-512 229.23-512 512-512zM512 864c229.75 0 416-186.25 416-416s-186.25-416-416-416-416 186.25-416 416 186.25 416 416 416zM669.256 642.744l-90.512 90.512-285.254-285.256 285.256-285.254 90.508 90.508-194.744 194.746z" />
<glyph unicode="user" glyph-name="user" d="M576 253.388v52.78c70.498 39.728 128 138.772 128 237.832 0 159.058 0 288-192 288s-192-128.942-192-288c0-99.060 57.502-198.104 128-237.832v-52.78c-217.102-17.748-384-124.42-384-253.388h896c0 128.968-166.898 235.64-384 253.388z" />
<glyph unicode="up3" glyph-name="circle-up" d="M0 448c0-282.77 229.23-512 512-512s512 229.23 512 512-229.23 512-512 512-512-229.23-512-512zM928 448c0-229.75-186.25-416-416-416s-416 186.25-416 416 186.25 416 416 416 416-186.25 416-416zM706.744 290.744l90.512 90.512-285.256 285.254-285.254-285.256 90.508-90.508 194.746 194.744z" />
<glyph unicode="travel" glyph-name="airplane" d="M768 320.032l-182.82 182.822 438.82 329.15-128.010 127.996-548.52-219.442-172.7 172.706c-49.78 49.778-119.302 61.706-154.502 26.508-35.198-35.198-23.268-104.726 26.51-154.5l172.686-172.684-219.464-548.582 127.99-128.006 329.19 438.868 182.826-182.828v-255.98h127.994l63.992 191.988 191.988 63.996v127.992l-255.98-0.004z" />
<glyph unicode="telephone" glyph-name="phone" d="M704 320c-64-64-64-128-128-128s-128 64-192 128-128 128-128 192 64 64 128 128-128 256-192 256-192-192-192-192c0-128 131.5-387.5 256-512s384-256 512-256c0 0 192 128 192 192s-192 256-256 192z" />
<glyph unicode="right5" glyph-name="circle-right" d="M512 960c-282.77 0-512-229.23-512-512s229.23-512 512-512 512 229.23 512 512-229.23 512-512 512zM512 32c-229.75 0-416 186.25-416 416s186.25 416 416 416 416-186.25 416-416-186.25-416-416-416zM354.744 253.256l90.512-90.512 285.254 285.256-285.256 285.254-90.508-90.508 194.744-194.746z" />
<glyph unicode="purchase" glyph-name="cart" d="M384 32c0-53.019-42.981-96-96-96s-96 42.981-96 96c0 53.019 42.981 96 96 96s96-42.981 96-96zM1024 32c0-53.019-42.981-96-96-96s-96 42.981-96 96c0 53.019 42.981 96 96 96s96-42.981 96-96zM1024 448v384h-768c0 35.346-28.654 64-64 64h-192v-64h128l48.074-412.054c-29.294-23.458-48.074-59.5-48.074-99.946 0-70.696 57.308-128 128-128h768v64h-768c-35.346 0-64 28.654-64 64 0 0.218 0.014 0.436 0.016 0.656l831.984 127.344z" />
<glyph unicode="profile2" glyph-name="user" d="M576 253.388v52.78c70.498 39.728 128 138.772 128 237.832 0 159.058 0 288-192 288s-192-128.942-192-288c0-99.060 57.502-198.104 128-237.832v-52.78c-217.102-17.748-384-124.42-384-253.388h896c0 128.968-166.898 235.64-384 253.388z" />
<glyph unicode="plus" glyph-name="plus" d="M992 576h-352v352c0 17.672-14.328 32-32 32h-192c-17.672 0-32-14.328-32-32v-352h-352c-17.672 0-32-14.328-32-32v-192c0-17.672 14.328-32 32-32h352v-352c0-17.672 14.328-32 32-32h192c17.672 0 32 14.328 32 32v352h352c17.672 0 32 14.328 32 32v192c0 17.672-14.328 32-32 32z" />
<glyph unicode="phone" glyph-name="phone" d="M704 320c-64-64-64-128-128-128s-128 64-192 128-128 128-128 192 64 64 128 128-128 256-192 256-192-192-192-192c0-128 131.5-387.5 256-512s384-256 512-256c0 0 192 128 192 192s-192 256-256 192z" />
<glyph unicode="left5" glyph-name="circle-left" d="M512-64c282.77 0 512 229.23 512 512s-229.23 512-512 512-512-229.23-512-512 229.23-512 512-512zM512 864c229.75 0 416-186.25 416-416s-186.25-416-416-416-416 186.25-416 416 186.25 416 416 416zM669.256 642.744l-90.512 90.512-285.254-285.256 285.256-285.254 90.508 90.508-194.744 194.746z" />
<glyph unicode="left4" glyph-name="arrow-left2" d="M402.746 82.746l-320 320c-24.994 24.992-24.994 65.516 0 90.51l320 320c24.994 24.992 65.516 24.992 90.51 0 24.994-24.994 24.994-65.516 0-90.51l-210.746-210.746h613.49c35.346 0 64-28.654 64-64s-28.654-64-64-64h-613.49l210.746-210.746c12.496-12.496 18.744-28.876 18.744-45.254s-6.248-32.758-18.744-45.254c-24.994-24.994-65.516-24.994-90.51 0z" />
<glyph unicode="down3" glyph-name="circle-down" d="M1024 448c0 282.77-229.23 512-512 512s-512-229.23-512-512 229.23-512 512-512 512 229.23 512 512zM96 448c0 229.75 186.25 416 416 416s416-186.25 416-416-186.25-416-416-416-416 186.25-416 416zM317.256 605.256l-90.512-90.512 285.256-285.254 285.254 285.256-90.508 90.508-194.746-194.744z" />
<glyph unicode="circle-up" glyph-name="circle-up" d="M0 448c0-282.77 229.23-512 512-512s512 229.23 512 512-229.23 512-512 512-512-229.23-512-512zM928 448c0-229.75-186.25-416-416-416s-416 186.25-416 416 186.25 416 416 416 416-186.25 416-416zM706.744 290.744l90.512 90.512-285.256 285.254-285.254-285.256 90.508-90.508 194.746 194.744z" />
<glyph unicode="circle-right" glyph-name="circle-right" d="M512 960c-282.77 0-512-229.23-512-512s229.23-512 512-512 512 229.23 512 512-229.23 512-512 512zM512 32c-229.75 0-416 186.25-416 416s186.25 416 416 416 416-186.25 416-416-186.25-416-416-416zM354.744 253.256l90.512-90.512 285.254 285.256-285.256 285.254-90.508-90.508 194.744-194.746z" />
<glyph unicode="circle-left" glyph-name="circle-left" d="M512-64c282.77 0 512 229.23 512 512s-229.23 512-512 512-512-229.23-512-512 229.23-512 512-512zM512 864c229.75 0 416-186.25 416-416s-186.25-416-416-416-416 186.25-416 416 186.25 416 416 416zM669.256 642.744l-90.512 90.512-285.254-285.256 285.256-285.254 90.508 90.508-194.744 194.746z" />
<glyph unicode="circle-down" glyph-name="circle-down" d="M1024 448c0 282.77-229.23 512-512 512s-512-229.23-512-512 229.23-512 512-512 512 229.23 512 512zM96 448c0 229.75 186.25 416 416 416s416-186.25 416-416-186.25-416-416-416-416 186.25-416 416zM317.256 605.256l-90.512-90.512 285.256-285.254 285.254 285.256-90.508 90.508-194.746-194.744z" />
<glyph unicode="cart" glyph-name="cart" d="M384 32c0-53.019-42.981-96-96-96s-96 42.981-96 96c0 53.019 42.981 96 96 96s96-42.981 96-96zM1024 32c0-53.019-42.981-96-96-96s-96 42.981-96 96c0 53.019 42.981 96 96 96s96-42.981 96-96zM1024 448v384h-768c0 35.346-28.654 64-64 64h-192v-64h128l48.074-412.054c-29.294-23.458-48.074-59.5-48.074-99.946 0-70.696 57.308-128 128-128h768v64h-768c-35.346 0-64 28.654-64 64 0 0.218 0.014 0.436 0.016 0.656l831.984 127.344z" />
<glyph unicode="arrow-left2" glyph-name="arrow-left2" d="M402.746 82.746l-320 320c-24.994 24.992-24.994 65.516 0 90.51l320 320c24.994 24.992 65.516 24.992 90.51 0 24.994-24.994 24.994-65.516 0-90.51l-210.746-210.746h613.49c35.346 0 64-28.654 64-64s-28.654-64-64-64h-613.49l210.746-210.746c12.496-12.496 18.744-28.876 18.744-45.254s-6.248-32.758-18.744-45.254c-24.994-24.994-65.516-24.994-90.51 0z" />
<glyph unicode="airplane" glyph-name="airplane" d="M768 320.032l-182.82 182.822 438.82 329.15-128.010 127.996-548.52-219.442-172.7 172.706c-49.78 49.778-119.302 61.706-154.502 26.508-35.198-35.198-23.268-104.726 26.51-154.5l172.686-172.684-219.464-548.582 127.99-128.006 329.19 438.868 182.826-182.828v-255.98h127.994l63.992 191.988 191.988 63.996v127.992l-255.98-0.004z" />
<glyph unicode="add" glyph-name="plus" d="M992 576h-352v352c0 17.672-14.328 32-32 32h-192c-17.672 0-32-14.328-32-32v-352h-352c-17.672 0-32-14.328-32-32v-192c0-17.672 14.328-32 32-32h352v-352c0-17.672 14.328-32 32-32h192c17.672 0 32 14.328 32 32v352h352c17.672 0 32 14.328 32 32v192c0 17.672-14.328 32-32 32z" />
</font>
</defs>
</svg>
